<svg width="65" height="39" viewBox="0 0 65 39" fill="none" xmlns="http://www.w3.org/2000/svg">
<path fill-rule="evenodd" clip-rule="evenodd" d="M14.5605 31.0188C13.2598 31.8842 11.9924 32.8016 10.7736 33.7742C11.0535 32.855 11.3761 31.9366 11.7416 31.0188L8.70724 31.0106C8.07255 32.7405 7.57173 34.5175 7.20929 36.3255C7.007 37.3787 7.72412 38.289 8.83367 38.289C9.42638 38.289 10.1314 38.0277 10.8687 37.3889C13.5996 35.009 16.6805 32.8986 20.0182 31.0269H19.4417L14.5605 31.0188ZM63.9595 15.5712L39.171 0.581733C38.5377 0.200338 37.8138 -0.000691208 37.0763 3.59299e-05C36.2491 -0.00351412 35.4418 0.256091 34.7692 0.741955C32.0898 2.70238 26.0252 7.05796 20.2043 13.2597C21.2689 13.3535 22.3007 13.679 23.2286 14.2139C28.3546 8.95613 33.5453 5.16693 36.1296 3.27897L36.433 3.05548C36.6222 2.92354 36.8474 2.85434 37.0773 2.8575C37.3016 2.85603 37.522 2.91674 37.7145 3.03303L43.5809 6.58138L46.3482 8.25503L48.1 9.31229L52.955 12.2494L55.4735 13.772L57.9495 15.2691L60.377 16.7396C59.5941 16.8172 58.7799 16.9029 57.9394 16.9999L57.9313 19.8757C59.675 19.6716 61.4137 19.5012 63.1362 19.3654C65.1611 19.1971 65.6871 16.6162 63.9595 15.5712Z" fill="#F3D83C"/>
<path fill-rule="evenodd" clip-rule="evenodd" d="M27.8977 29.5198L19.9073 29.4994L19.9154 26.297L22.1598 26.3031L22.1709 21.8322C22.1759 19.3258 20.9218 17.9328 18.7674 17.9266C17.6902 17.9266 16.4926 18.4369 15.4994 19.882C15.6194 20.4481 15.6787 21.0256 15.6764 21.6046L15.6632 26.2867L17.938 26.2919L17.9289 29.4942L9.93847 29.4738L9.94656 26.2714L12.192 26.2776L12.2021 21.8067C12.2082 19.3003 10.9883 17.9072 8.79857 17.9021C7.78105 17.9021 6.67453 18.4706 5.71062 19.8268L5.69444 26.2612L7.99952 26.2663L7.99042 29.4687L0 29.4483L0.00809156 26.2459L2.25249 26.2521L2.26867 18.3644H0.0222517L0.0303433 15.1631L5.71871 15.1773V16.204C6.67959 15.2702 7.72947 14.7293 9.5258 14.7334C11.4111 14.7385 13.0568 15.5284 14.1613 16.9204C15.6572 15.4723 17.1602 14.7518 19.4865 14.7569C22.9305 14.7661 25.6189 17.4919 25.6078 21.6301L25.5977 26.3123L27.9017 26.3174L27.8977 29.5198Z" fill="white"/>
<path fill-rule="evenodd" clip-rule="evenodd" d="M29.5351 21.0056L37.2221 21.025C36.9287 19.0911 35.6766 17.6685 33.5495 17.6624C31.3344 17.6573 29.9831 19.1635 29.531 21.0056H29.5351ZM40.4233 23.7824H40.3909L29.5249 23.7538C29.968 25.5377 31.2828 26.9001 33.7093 26.9062C35.0555 26.9062 36.0457 26.4592 36.5848 25.5847L40.2685 25.5938C39.4523 28.2196 36.8134 29.9954 33.5819 29.9872C29.0597 29.9749 26.0456 26.6195 26.0557 22.3863C26.0668 18.1267 29.1578 14.9029 33.4696 14.9141C37.5993 14.9243 40.5275 17.892 40.5163 22.1812C40.5278 22.7166 40.4967 23.2521 40.4233 23.7824Z" fill="white"/>
<path fill-rule="evenodd" clip-rule="evenodd" d="M46.355 6.5882L46.352 8.25471L43.5857 6.58105L46.355 6.5882Z" fill="white"/>
<path fill-rule="evenodd" clip-rule="evenodd" d="M47.0858 29.5677L39.0934 29.5473L39.1015 26.346L41.3459 26.3511L41.3833 11.3086L39.1389 11.3035L39.148 8.10107L44.8333 8.11536L44.7878 26.3602L47.0949 26.3664L47.0858 29.5677Z" fill="white"/>
<path fill-rule="evenodd" clip-rule="evenodd" d="M48.1008 9.3125L52.9618 9.32475L52.9568 12.2496L48.1008 9.3125Z" fill="white"/>
<path fill-rule="evenodd" clip-rule="evenodd" d="M56.964 29.4418C55.4074 29.9215 54.6569 30.0409 53.4301 30.0378C50.0781 30.0286 47.9592 27.758 47.9683 24.0729L47.9814 18.4845L44.5101 18.4753L44.5182 15.2739L47.9895 15.2831L48.0006 10.8418L51.4395 10.851L51.4294 15.2913L56.427 15.3045L56.4189 18.5059L51.4203 18.4937L51.4082 24.079C51.4031 25.9822 52.4196 26.8007 54.1259 26.8048C54.9275 26.7944 55.724 26.6746 56.4937 26.4486L56.964 29.4418Z" fill="white"/>
</svg>
