<svg width="65" height="38" viewBox="0 0 65 38" fill="none" xmlns="http://www.w3.org/2000/svg">
<path fill-rule="evenodd" clip-rule="evenodd" d="M63.9576 15.4301L39.1687 0.578055C38.4993 0.174739 37.7269 -0.0252142 36.9458 0.00254322C36.1648 0.0303007 35.4086 0.284571 34.7694 0.734392C29.4539 4.58342 10.8576 17.7549 7.20868 36.0041C6.88819 37.6066 8.75955 38.876 10.8654 37.0578C23.7226 25.9641 44.2591 20.7018 63.1415 19.1853C65.1614 19.0243 65.6867 16.4666 63.9576 15.4301Z" fill="#F3D83C"/>
<path fill-rule="evenodd" clip-rule="evenodd" d="M27.8953 29.2546L19.9017 29.2343L19.9096 26.0607H22.1546L22.1655 21.6301C22.1655 19.1443 20.9148 17.7638 18.762 17.7591C17.6849 17.7591 16.4858 18.2625 15.4946 19.6962C15.6154 20.2571 15.6742 20.8296 15.6697 21.4034L15.6587 26.0435H17.9335V29.2171L9.93993 29.1968L9.94774 26.0231H12.1927L12.2037 21.5925C12.2037 19.1068 10.9858 17.7263 8.80023 17.7216C7.78247 17.7216 6.67404 18.2844 5.71256 19.6289L5.69693 26.0059H8.00134L7.99353 29.1796L0 29.1593V25.9856H2.245L2.26533 18.1687H0.0203234L0.0281408 14.9951L5.71569 15.0092V16.0269C6.6756 15.1014 7.72463 14.5652 9.52094 14.5699C11.4079 14.5699 13.0526 15.3515 14.1563 16.7367C15.6572 15.3046 17.1549 14.5886 19.4906 14.5949C22.93 14.6042 25.6206 17.3058 25.6112 21.4065L25.5987 26.0466H27.9046L27.8953 29.2546Z" fill="#0D1010"/>
<path fill-rule="evenodd" clip-rule="evenodd" d="M29.532 20.8161L37.2253 20.8364C36.9314 18.9197 35.6776 17.5096 33.5514 17.5033C31.3361 17.5033 29.9853 18.9916 29.532 20.8161ZM40.4224 23.5692H40.3927L29.5257 23.5411C29.9697 25.3092 31.2829 26.6584 33.7093 26.6678C35.0553 26.6678 36.045 26.2254 36.5859 25.3577L40.2676 25.3671C39.4531 27.9701 36.8141 29.7305 33.5811 29.7211C29.0598 29.707 26.0519 26.377 26.0519 22.1856C26.0628 17.9645 29.1552 14.7674 33.4654 14.7783C37.5974 14.7893 40.524 17.7316 40.5131 21.9824C40.5264 22.5129 40.4961 23.0436 40.4224 23.5692Z" fill="#0D1010"/>
<path fill-rule="evenodd" clip-rule="evenodd" d="M47.084 29.3033L39.0905 29.283L39.0983 26.1109L41.3433 26.1156L41.3824 11.2057L39.1358 11.201L39.1452 8.02734L44.8327 8.04141L44.7858 26.125L47.0918 26.1296L47.084 29.3033Z" fill="#0D1010"/>
<path fill-rule="evenodd" clip-rule="evenodd" d="M56.9647 29.1784C55.4013 29.6474 54.6571 29.7725 53.4299 29.7693C50.0764 29.76 47.9581 27.5103 47.9659 23.8566L47.9799 18.3192L44.5077 18.3098L44.5155 15.1361L47.9878 15.1455L47.9987 10.7446L51.4381 10.7524L51.4272 15.1533L56.43 15.1659L56.4222 18.3395L51.4194 18.327L51.4053 23.866C51.4053 25.7515 52.4168 26.5628 54.1224 26.5675C54.9238 26.5571 55.72 26.4383 56.4894 26.2142L56.9647 29.1784Z" fill="#0D1010"/>
</svg>
